<svg xmlns="http://www.w3.org/2000/svg" width="545.243" height="84.264" viewBox="0 0 545.243 84.264">
  <path id="Path_2" data-name="Path 2" d="M176.2-59.8c.2.5.7,1.1,1.2.6.4-.4.2-1.1,0-1.5-.6-.8-2.6-1.1-3.7-1.3a70.921,70.921,0,0,0-9.2-.5c-12.9-.3-25.9.2-38.7.7s-25.6,1.3-38.3,2c-12.5.7-25,2-37.3,3.8a303.19,303.19,0,0,0-37.7,7.6A144.13,144.13,0,0,0-5.4-42.5a54.884,54.884,0,0,0-8.4,4.2c-2.3,1.4-4.9,3.3-5.6,6.1-.6,2.9,2.5,5,4.7,6a39.747,39.747,0,0,0,8.9,2.7,168.166,168.166,0,0,0,18.7,2.6c12.5,1.4,25.2,2,37.7,4.2a54.792,54.792,0,0,1,8.9,2.1c2.4.8,5.7,2.2,5.8,5a3.365,3.365,0,0,1-.4,2.2,10.7,10.7,0,0,1-1.4,1.6c-1.1,1.2-2.1,2.4-3.2,3.6-2,2.3-4.1,4.7-6.1,7.1-1.1,1.2-3.8,4.4-4.6,5.5a.8.8,0,0,0,.9,1.1c.6-.1,1.2-1,1.6-1.4l1.5-1.5c1.2-1.2,2.4-2.3,3.5-3.5a81.715,81.715,0,0,0,6.3-6.9,19.891,19.891,0,0,0,2.3-3.6,11.782,11.782,0,0,1,1.1-1.9c.5-.6,1-1.2,1.6-1.8,8.5-9.6,17.1-19,25.9-28.4,4.4-4.7,8.9-9.3,13.3-14.1a19.2,19.2,0,0,0,1.4-1.5c.3-.4.4-.8,0-1.1-.6-.5-1,.1-1.7.8-.6.5-6,6.3-8.2,8.6-8.8,9.4-17.6,19-26.3,28.5-1.1,1.2-6,6.6-6,6.6a5.86,5.86,0,0,0-1.7-3.5,10.783,10.783,0,0,0-3.4-2.1,34.714,34.714,0,0,0-8.9-2.5c-3.1-.6-6.2-1.1-9.3-1.4-12.4-1.6-24.9-2.3-37.3-3.9C0-23.9-6.5-24.6-12.3-26.8c-2.1-.8-6.4-2.5-5.6-5.4.7-2.5,4.9-5,6.2-5.7a93.983,93.983,0,0,1,17.5-7c6.2-2,12.4-3.6,18.7-5A366.075,366.075,0,0,1,62-56c12.5-1.5,25.1-2.3,37.7-3.1,12.8-.7,25.5-1.4,38.3-1.7,12.8-.2,26.9-.5,33.8.1A21.474,21.474,0,0,1,176.2-59.8ZM104.7-29.1a32.31,32.31,0,0,0,4.1-2.5c3.4-2.5,12.6-9.6,11.1-14.4-.4-1.3-1.8-3-5.8-2.3-4.6.8-9.8,3.2-12,7.7a10.89,10.89,0,0,0-.7,7.1,17.825,17.825,0,0,0,2.3,5.5c.5,1,1.1,2,1.6,3.1,1.5,3.8-2.1,7.4-4.5,10.1-2.8,3.1-5.5,6.3-8.3,9.4-1.4,1.6-3.6,4-3.9,5.7-.2,1,.2,1.9,1.4,1.8A13.722,13.722,0,0,0,95.7-.3c2.2-1.5,4.3-3,6.5-4.5,10.5-7.5,20.9-15.2,31.3-23,1.1-.8,2.3-1.7.6-2.2,0,0-1.1.7-1.3.9-5.6,4.1-11.2,8.3-16.7,12.4C110.7-12.8,105.4-9,100-5.1c-1.9,1.4-3.8,2.7-5.8,4A12.153,12.153,0,0,1,90,.7c0-1.2,3.8-5.2,4.9-6.6C97.6-9,100.3-12,103-15c2.6-3.2,5.8-6.7,3.3-11.2A13.956,13.956,0,0,0,104.7-29.1Zm11-17.9c2.4-.1,3.1,1.4,2.8,2.6-.9,3.1-3.8,5.7-6.2,8a42.713,42.713,0,0,1-8.2,6,12.35,12.35,0,0,1-1.2-8.2c1.1-3.7,4.6-6,8.4-7.4A13.662,13.662,0,0,1,115.7-47Zm10.9,28.4a4.54,4.54,0,0,1,.6-1.4l2.1-3a77.088,77.088,0,0,1,6.3-6.5c.3-.3.7-.6,1-.9a.668.668,0,0,0,0-1c-.5-.5-1,.1-1.4.4a68.817,68.817,0,0,0-5.5,5.3,32.541,32.541,0,0,0-3.6,4.7,6.353,6.353,0,0,0-.9,2.1,1.4,1.4,0,0,0,1.4,1.8c1.6,0,4-1.4,5.2-2l11.1-6.3c3.3-1.8,4.6-2.7,5.5-3.2.3-.1.8-1.2-.5-1.4,0,0-3.4,2-6.7,3.9-3.6,2-7.1,4-10.6,5.9C129.5-19.6,127.6-18.6,126.6-18.6Zm15.5-21.1a.772.772,0,0,0-.6,1.1.63.63,0,0,0,.8.3.707.707,0,0,0,.6-.8A.606.606,0,0,0,142.1-39.7Zm6.6,11c1.3-1.5,2.8-2.9,4.5-4.7a.782.782,0,0,0,0-1.1c-.2-.2-.5-.3-1.1.2-1.4,1.4-2.6,2.7-4.1,4.1-3.3,3.2-7.3,6.9-10.2,10.1a2.335,2.335,0,0,1-1.2,1c-1.2.2-6.3.6-6.3,2.5a1.208,1.208,0,0,0,1.1,1.3c.6.1,1.2.1,1.7.2l-16.8,18c-1.3,1.4-2.4,2.8-3.6,4.2-.3.4-1,1.2-.2,1.8q.45.3,1.2-.6c1.3-1.5,2.2-2.8,3.6-4.3,5.7-6.3,11.6-12.5,17.5-18.7a3.36,3.36,0,0,1,1.6-1,42.742,42.742,0,0,0,8.4-3.2,2.935,2.935,0,0,1,1-.3,93.507,93.507,0,0,0,14.6-4.2c4.9-1.7,9.6-3.7,14.5-5.2.4-.1.7-1.2-.5-1.4-5,1.6-9.8,3.5-14.9,5.3-2.8,1-6.9,2.2-8.9,2.8,5.5-3,8.2-5.4,9.2-7.3a1.856,1.856,0,0,0-1.5-2.9C155-32.5,151.6-30.4,148.7-28.7Zm-9.1,9.1c3.8-3.8,12-10.6,17.9-11.1,1.1-.1,1.3.3,1.1.7a7.413,7.413,0,0,1-2.4,2.6,57.436,57.436,0,0,1-6.6,4.3c-1.3.8-2.7,1.4-4,2.2a6.539,6.539,0,0,1-2.3.6C142.1-20,139.7-19.6,139.6-19.6Zm-7.4,3a11.772,11.772,0,0,1,3-.7c-.3.3-.6.6-.7.6A16.223,16.223,0,0,1,132.2-16.6Zm58.7-31.2c-.2.3-3.1,3.3-4.3,4.6-9.3,9.9-18.4,19.9-27.4,30-4.2,4.8-8.8,9.7-12.4,14.8-.3.3-.6,1-.1,1.3s.8-.1,1.1-.4c2.6-3.4,5.4-6.6,8.2-9.8,7.4-8.5,15-16.8,22.6-25.1,4.6-5,12.5-13.3,14.5-15.4,6.6.1,14.1.2,20.7.6a35.93,35.93,0,0,1,4.6.5.53.53,0,0,0,.8-.3.687.687,0,0,0-.3-.9,22.55,22.55,0,0,0-5.2-.8c-3.4-.1-18.9-.5-19.2-.6.2-.2,1.9-2,2.7-2.8,2.1-2.1,4.3-4.2,6.4-6.4,1.3-1.3,2.5-2.6,3.7-3.9a.606.606,0,0,0,0-1c-.2-.3-.6-.3-1,0-.6.7-1.1,1.2-2.5,2.7L192.4-49.3h-9.2c-5.6.1-11.2.1-16.7.2h-6.8c-.6,0-.8.3-.8.6,0,.2,0,.7.8.7,1.7.1,10,.1,12.4,0ZM179.1-18.6a4.54,4.54,0,0,1,.6-1.4l2.1-3a77.088,77.088,0,0,1,6.3-6.5c.3-.3.7-.6,1-.9a.668.668,0,0,0,0-1c-.5-.5-1,.1-1.4.4a68.817,68.817,0,0,0-5.5,5.3,32.541,32.541,0,0,0-3.6,4.7,6.352,6.352,0,0,0-.9,2.1,1.4,1.4,0,0,0,1.4,1.8c1.6,0,4-1.4,5.2-2l11.1-6.3c3.3-1.8,4.6-2.7,5.5-3.2.3-.1.8-1.2-.5-1.4,0,0-3.4,2-6.7,3.9-3.6,2-7.1,4-10.6,5.9C182-19.6,180.1-18.6,179.1-18.6Zm15.5-21.1a.772.772,0,0,0-.6,1.1.63.63,0,0,0,.8.3.707.707,0,0,0,.6-.8A.606.606,0,0,0,194.6-39.7ZM363.8-62.3a7.239,7.239,0,0,1-1.1,3.1,32.577,32.577,0,0,1-2.4,4c-1.6,2.5-3.3,5.1-5,7.6-2.9,4.4-5.9,8.9-8.6,13.5-2,3.3-4.1,6.7-6,10.1-2,3.3-3.8,6.5-5.7,9.8-1.6,2.7-3.1,5.5-4.5,8.2-2.2,4-4.3,8-6.3,12.1a34.154,34.154,0,0,0-2.8,7.6,2.7,2.7,0,0,0,.4,2.3.668.668,0,0,0,1.1-.3c.2-.4-.2-.9-.1-1.3A21.168,21.168,0,0,1,324.5,9c1.2-2.5,2.4-5.1,3.7-7.5,2.3-4.6,4.7-9,7.3-13.5,2.8-5.1,5.8-10.3,8.8-15.3,3.6-6.2,7.4-12.2,11.4-18.2,1.9-2.9,3.9-5.9,5.8-8.9,1.5-2.2,3.7-5.8,3.7-8a1.482,1.482,0,0,0-1.1-1.3c-1.5-.4-3.7.5-4.5.8a51.219,51.219,0,0,0-6.2,3.1c-3.8,2.1-7.6,4.3-11.3,6.7-4.6,2.8-9.1,5.8-13.6,8.8-3.6,2.5-7.1,5-10.6,7.6-3.9,2.8-7.8,5.8-11.6,8.8-4.2,3.3-8.4,6.7-12.5,10-2,1.7-4.1,3.4-6.2,5.1A15.1,15.1,0,0,1,285-11c.4-.7.9-1.6,1.3-2.2,1.2-2,2.6-3.9,4-5.8,1.8-2.3,3.7-4.6,5.5-6.9,2.8-3.4,5.7-6.8,8.6-10.2,1.9-2.2,3.9-4.4,5.8-6.6,2.3-2.5,4.7-5,7-7.6,2.2-2.4,6.7-6.8,7.6-9.3a.965.965,0,0,0-1-1.2,8.763,8.763,0,0,0-2.9.9c-7.1,3.5-13.6,7.1-20.5,11.1-4,2.3-7.9,4.7-11.9,7.1-4.3,2.7-8.6,5.3-12.8,8.1-3.3,2.2-6.5,4.4-9.8,6.6-3.6,2.5-7.2,5.1-10.8,7.7l-10.5,7.8c-1.4,1-1.9,1.4-3.5,2.5a16.675,16.675,0,0,1-2.3,1.3,25.6,25.6,0,0,1,1.6-2.5c1.4-2.1,3-4,4.6-6q2.85-3.45,6-6.9c2.9-3.3,5.8-6.5,8.8-9.8,2.2-2.5,4.5-4.9,6.7-7.4,2.3-2.5,4.6-5,6.8-7.5,2.1-2.3,4.2-4.6,6.2-7,1.8-2.3,5-6,4.8-8.8a3.057,3.057,0,0,0-2.3-2.7c-3-.8-7.3-.2-11.1.5-2.1.4-4.2.8-6.2,1.3-3.9,1-7.8,2-11.6,3.1-3.7,1.1-7.2,2.2-10.8,3.5-5.1,1.8-10.2,3.8-15.3,5.9-4,1.7-8,3.5-11.9,5.4-3.1,1.5-6.3,3.1-9.4,4.7-.4.2-2.4,1-1.6,1.8.4.6,1,0,1.5-.2,4.7-2.4,9.4-4.8,14.5-7.1l9-3.9c5-2,10-4,15.1-5.7,3.3-1.1,6.5-2.2,9.8-3.1,5.6-1.6,11.2-3.1,16.9-4.2,3.4-.8,9.2-1.6,11.3-.3a1.513,1.513,0,0,1,.7,1.4c0,1.3-1,2.7-2.3,4.6-1.5,2-3,3.8-4.7,5.7-1.7,2-3.5,3.9-5.3,5.9-1.9,2.2-3.8,4.3-5.8,6.4-2.2,2.5-4.5,4.9-6.7,7.4-2.4,2.6-4.7,5.2-7.1,7.9-2.1,2.3-4.1,4.6-6.1,6.9-1.8,2.2-3.6,4.4-5.2,6.7-.9,1.1-2.7,3.8-2.5,4.7a1.061,1.061,0,0,0,.9.9c1.4.2,5.5-2.9,7.4-4.3,3.2-2.3,6.4-4.7,9.6-7C260-21,264.9-24.6,270-28c3.8-2.6,7.7-5.2,11.6-7.7l9.3-5.7c4.9-3,9.8-5.9,14.8-8.8s16-8.9,17.2-8.8a55.326,55.326,0,0,1-4,4.6c-2,2.3-4,4.5-6.1,6.7L307.7-42c-3,3.3-5.9,6.7-8.8,10.1s-5.7,6.8-8.5,10.3c-1.8,2.4-3.6,4.8-5.2,7.3a14.15,14.15,0,0,0-2,4.1.93.93,0,0,0,1,1.1,2.279,2.279,0,0,0,1.1-.3,34.649,34.649,0,0,0,4.9-3.5c3.1-2.6,6.3-5.3,9.5-7.9,4-3.3,8-6.5,12.2-9.6,5.9-4.5,11.9-8.9,18.1-13.1q5.85-4.05,12-7.8c4.1-2.7,8.3-5.2,12.7-7.6,1.5-.8,3.1-1.6,4.7-2.3C360.3-61.6,362.8-62.6,363.8-62.3Zm3,33.8q-2.4,2.85-4.2,5.4a12.768,12.768,0,0,0-2.3,5.1,1.621,1.621,0,0,0,1.8,2,7.619,7.619,0,0,0,2.9-1c1-.6,1.8-1,2.7-1.6,4.7-3,9.3-6,14-9.1.8-.5,1.1-.7,1.4-.9.7-.5.2-1.1-.5-1.4,0,0-.8.5-1,.6-3.2,2.1-7.2,4.7-10.4,6.8-2.1,1.4-4,2.6-6.2,4a7.915,7.915,0,0,1-2.8,1.2c-.4,0-.5-.1-.5-.5a13.933,13.933,0,0,1,1.6-3.5,32.088,32.088,0,0,1,3.9-5.2c1.2-1.3,2.4-2.5,3.6-3.8l.7-.7a.908.908,0,0,0,0-1,.777.777,0,0,0-1-.3,10.929,10.929,0,0,0-1.5.8c-3.1,1.9-6.3,3.9-9.6,5.6-1,.5-2.1,1-3.1,1.5a8.433,8.433,0,0,1-2.4.7,5.567,5.567,0,0,1,1.3-2.3,16.565,16.565,0,0,1,5.8-4.4,5.933,5.933,0,0,1,2.6-.6c.4.1.4.2.4.5,0,.5-.4,1,.3,1.3.3.2.8-.1.9-.4a2.92,2.92,0,0,0,.2-.9,1.675,1.675,0,0,0-1.1-1.8,5.732,5.732,0,0,0-4,.6,19.512,19.512,0,0,0-6.2,4.8,7.109,7.109,0,0,0-1.5,2.9,1.263,1.263,0,0,0,1.3,1.6c1.8.1,5.1-1.7,6.1-2.2C362.5-26.1,365.2-27.6,366.8-28.5ZM365.2-.7a10.958,10.958,0,0,0,4.5-.5c5.8-1.8,13.9-7,21.5-12.2,4.7-3.3,9.3-6.6,13.9-9.9,2.1-1.6,4.7-3.6,6.8-5.2.3-.2,1-1.2-.4-1.5,0,0-.9.6-1.1.8-2.1,1.6-4.2,3.2-6.4,4.7-5.2,3.9-10.5,7.8-15.9,11.4-4.2,2.8-8.4,5.4-12.8,7.8C372.6-4,369-2,366-2.1c-.8-.1-1.1-.3-1-1.2a9.365,9.365,0,0,1,.4-1.6,27.308,27.308,0,0,1,2.9-5.3c2.1-3.2,4.5-6.2,6.9-9.2,5.4-6.5,11.2-12.6,17.1-18.6,5.3-5.4,10.7-10.6,16-15.9,3.7-3.7,7.4-7.4,10.8-11.3.6-.6,1.2-1.3.8-1.7-.5-.5-.9-.1-1.5.4-4.1,4.2-8.2,8.5-12.3,12.6-5.3,5.3-10.6,10.5-15.8,15.8a250.749,250.749,0,0,0-17,18.8,86.124,86.124,0,0,0-6.8,9.1,24.51,24.51,0,0,0-2.6,5.1,7.308,7.308,0,0,0-.4,2.3A2.226,2.226,0,0,0,365.2-.7Zm41.7-21.9c2.3-2.6,8.4-9.5,12.5-13.9,4.3-4.6,8.5-9.3,12.9-13.9,3.5-3.6,7.1-7.2,10.7-10.7,1.1-1.1,2.5-2.6,3.5-3.7a.817.817,0,0,0,0-1.2.761.761,0,0,0-.9.1c-1,1-1.9,2-2.9,3-5.1,4.9-10.1,9.9-14.9,15.1-7.3,7.9-14.5,15.8-21.7,23.7L401.6-19c-.4.4-1,1.1-.5,1.6a1.071,1.071,0,0,0,1.4-.1c1.1-.9,2.2-1.8,3.4-2.6a85.1,85.1,0,0,1,9-5.7,10.2,10.2,0,0,1,2.2-.9,10.3,10.3,0,0,0-.5,3.1,2.152,2.152,0,0,0,2.3,2.3c1.4.1,4.1-.9,6.1-1.7,4.6-1.8,8.9-3.7,13.5-5.5.8-.3,1.1-1.3-.1-1.5,0,0-1.1.4-1.5.6-4.2,1.7-7.8,3.1-12.1,4.8a25.524,25.524,0,0,1-5.9,1.9c-.5,0-.8-.2-.8-.8,0-1.1.4-2.2.5-3.4a1.184,1.184,0,0,0-1.2-1.3C414.9-28.1,409.8-24.8,406.9-22.6Zm23.3,4.8a1.454,1.454,0,0,0,1.8,1.7c1.7-.3,3.5-1.6,5.2-3a21.773,21.773,0,0,0,4.3-4.8,5.082,5.082,0,0,0,.8-2.7c1.9-.3,9-1.4,12.9-2A.711.711,0,0,0,455-30c-2.8.4-7,1-9.9,1.4-2.4.4-3.4.6-3.8.4-.6-.3-1.6-.4-1.8.5-.1.4.1,1,1,1.1.3.1.1.9-.2,1.6a18.823,18.823,0,0,1-1.6,2.3c-1.7,1.9-4.3,4.5-6.8,5.2-.3.1-.3-.1-.3-.3a9.816,9.816,0,0,1,1.3-3.2,43.38,43.38,0,0,1,8.1-9.5,2.186,2.186,0,0,1,.5-.3.608.608,0,0,0,.4-.9c-.5-.9-1.6-.1-2.2.4a54.019,54.019,0,0,0-6.4,7.1C432.1-22.7,430.3-20.2,430.2-17.8Zm41.3-30c-.2.3-3.1,3.3-4.3,4.6-9.3,9.9-18.4,19.9-27.4,30-4.2,4.8-8.8,9.7-12.4,14.8-.3.3-.6,1-.1,1.3s.8-.1,1.1-.4c2.6-3.4,5.4-6.6,8.2-9.8,7.4-8.5,15-16.8,22.6-25.1,4.6-5,12.5-13.3,14.5-15.4,6.6.1,14.1.2,20.7.6a35.93,35.93,0,0,1,4.6.5.53.53,0,0,0,.8-.3.687.687,0,0,0-.3-.9,22.55,22.55,0,0,0-5.2-.8c-3.4-.1-18.9-.5-19.2-.6.2-.2,1.9-2,2.7-2.8,2.1-2.1,4.3-4.2,6.4-6.4,1.3-1.3,2.5-2.6,3.7-3.9a.606.606,0,0,0,0-1c-.2-.3-.6-.3-1,0-.6.7-1.1,1.2-2.5,2.7L473-49.3h-9.2c-5.6.1-11.2.1-16.7.2h-6.8c-.6,0-.8.3-.8.6,0,.2,0,.7.8.7,1.7.1,10,.1,12.4,0Zm-2.3,18.7a32.312,32.312,0,0,0,4.1-2.5c3.4-2.5,12.6-9.6,11.1-14.4-.4-1.3-1.8-3-5.8-2.3-4.6.8-9.8,3.2-12,7.7a10.89,10.89,0,0,0-.7,7.1,17.825,17.825,0,0,0,2.3,5.5c.5,1,1.1,2,1.6,3.1,1.5,3.8-2.1,7.4-4.5,10.1-2.8,3.1-5.5,6.3-8.3,9.4-1.4,1.6-3.6,4-3.9,5.7-.2,1,.2,1.9,1.4,1.8a13.722,13.722,0,0,0,5.7-2.4c2.2-1.5,4.3-3,6.5-4.5,10.5-7.5,20.9-15.2,31.3-23,1.1-.8,2.3-1.7.6-2.2,0,0-1.1.7-1.3.9-5.6,4.1-11.2,8.3-16.7,12.4-5.4,3.9-10.7,7.7-16.1,11.6-1.9,1.4-3.8,2.7-5.8,4A12.153,12.153,0,0,1,454.5.7c0-1.2,3.8-5.2,4.9-6.6,2.7-3.1,5.4-6.1,8.1-9.1,2.6-3.2,5.8-6.7,3.3-11.2A13.955,13.955,0,0,0,469.2-29.1Zm11-17.9c2.4-.1,3.1,1.4,2.8,2.6-.9,3.1-3.8,5.7-6.2,8a42.713,42.713,0,0,1-8.2,6,12.35,12.35,0,0,1-1.2-8.2c1.1-3.7,4.6-6,8.4-7.4A13.662,13.662,0,0,1,480.2-47Zm27.9,18.5q-2.4,2.85-4.2,5.4a12.768,12.768,0,0,0-2.3,5.1,1.621,1.621,0,0,0,1.8,2,7.619,7.619,0,0,0,2.9-1c1-.6,1.8-1,2.7-1.6,4.7-3,9.3-6,14-9.1.8-.5,1.1-.7,1.4-.9.7-.5.2-1.1-.5-1.4,0,0-.8.5-1,.6-3.2,2.1-7.2,4.7-10.4,6.8-2.1,1.4-4,2.6-6.2,4a7.915,7.915,0,0,1-2.8,1.2c-.4,0-.5-.1-.5-.5a13.933,13.933,0,0,1,1.6-3.5,32.088,32.088,0,0,1,3.9-5.2c1.2-1.3,2.4-2.5,3.6-3.8l.7-.7a.908.908,0,0,0,0-1,.777.777,0,0,0-1-.3,10.929,10.929,0,0,0-1.5.8c-3.1,1.9-6.3,3.9-9.6,5.6-1,.5-2.1,1-3.1,1.5a8.433,8.433,0,0,1-2.4.7,5.567,5.567,0,0,1,1.3-2.3,16.565,16.565,0,0,1,5.8-4.4,5.933,5.933,0,0,1,2.6-.6c.4.1.4.2.4.5,0,.5-.4,1,.3,1.3.3.2.8-.1.9-.4a2.92,2.92,0,0,0,.2-.9,1.675,1.675,0,0,0-1.1-1.8,5.732,5.732,0,0,0-4,.6,19.512,19.512,0,0,0-6.2,4.8,7.109,7.109,0,0,0-1.5,2.9,1.263,1.263,0,0,0,1.3,1.6c1.8.1,5.1-1.7,6.1-2.2C503.8-26.1,506.5-27.6,508.1-28.5Z" transform="translate(19.989 67.591)" fill="none" stroke="#ffa914" stroke-width="1"/>
</svg>
